<?xml version="1.0" encoding="utf-8"?>
<!-- Generator: Adobe Illustrator 23.1.0, SVG Export Plug-In . SVG Version: 6.00 Build 0)  -->
<svg version="1.1" id="Layer_1" xmlns="http://www.w3.org/2000/svg" xmlns:xlink="http://www.w3.org/1999/xlink" x="0px" y="0px"
	 viewBox="0 0 420 120" style="enable-background:new 0 0 420 120;" xml:space="preserve">
<style type="text/css">
	.st0{fill:#FFFFFF;}
</style>
<g>
	<g>
		<g>
			<path d="M409.5,63.2C409.5,63.2,409.4,63.2,409.5,63.2c-0.1,0-0.1,0-0.1-0.1l-0.9-1.6h-0.6v1.6c0,0.1,0,0.1-0.1,0.1h-0.5
				c-0.1,0-0.1,0-0.1-0.1v-4.1c0,0,0,0,0-0.1c0,0,0,0,0.1,0h1.1c0.4,0,0.7,0.1,1,0.3c0.2,0.2,0.4,0.5,0.4,0.9c0,0.3-0.1,0.5-0.2,0.7
				c-0.1,0.2-0.3,0.3-0.5,0.4l0.9,1.8c0,0.1,0,0.1-0.1,0.1L409.5,63.2L409.5,63.2z M407.9,59.6V61h0.4c0.2,0,0.4-0.1,0.6-0.2
				c0.2-0.1,0.2-0.3,0.2-0.5c0-0.2-0.1-0.4-0.2-0.5c-0.1-0.1-0.3-0.2-0.4-0.2C408.5,59.6,407.9,59.6,407.9,59.6z"/>
		</g>
		<path d="M408.4,57.6c-2,0-3.6,1.6-3.6,3.6c0,2,1.6,3.6,3.6,3.6c2,0,3.6-1.6,3.6-3.6C412,59.2,410.4,57.6,408.4,57.6z M408.4,64.1
			c-1.6,0-3-1.3-3-3c0-1.6,1.3-3,3-3s3,1.3,3,3C411.4,62.8,410.1,64.1,408.4,64.1z"/>
	</g>
	<path d="M138.8,43.5l14.6-28l-2,1.1c-0.1,0.1-10,5.3-13.2,6.8c-3.1,1.5-10.6,1.2-10.7,1.2c0,0-33.1,0-33.1,0
		c-0.6,0-9.3-0.4-13.3,10.2c0,0-12.3,35.5-13,37.5c-0.9-0.9-9.1-8.7-15.4-14.9l3.5-7.1l15.4,0c0,0,5.3-14.8,5.3-15l0.3-0.9H22.2
		c-0.1,0-10.2,0.4-10.2,12.2v16.8l7.4-8.6c0.5-0.6,1.1-1,1.8-1c1.7-0.2,3.6,1.4,3.7,1.5c0,0,53.1,53.1,53.1,53.1l13.2-38.8l29.8,0
		l6.6-16.7l-30.9,0l3.2-9.4C101,43.5,138.8,43.5,138.8,43.5z"/>
	<g>
		<g>
			<path d="M134.5,64.6L134.5,64.6l7.6-17.8l3.6-3.1h20.9l1.1,3.3l-1.9,4.6h-8.5c0,0,1.1-2.7,1.6-3.8c-1,0-8.1,0-8.8,0
				c-0.4,0.9-4.9,11.4-5.4,12.7c1,0,8.1,0,8.8,0c0.3-0.8,1.9-4.1,1.9-4.1h8.5l-2.3,5.1l-3.7,3.1L134.5,64.6L134.5,64.6z"/>
		</g>
		<path d="M184.5,64.6l-3.4-12.5c0,0,6,0,6.7,0c0.3-0.7,1.4-3.3,1.8-4.4c-1,0-8.1,0-8.7,0c-0.3,0.8-7.2,16.8-7.2,16.8h-8.5l8.9-20.9
			h23.2l1.1,3.3l-2.6,6.1l-3.7,3.1c0,0-1.3,0-1.4,0c0.5,1.6,2.7,8.4,2.7,8.4H184.5L184.5,64.6z"/>
		<path d="M207.4,43.7l-3.6,3.1l-6.2,14.5l1.1,3.3h20.9l3.7-3.1l6.2-14.5l-1.1-3.3C228.3,43.7,207.4,43.7,207.4,43.7z M220.6,47.8
			c-0.6,1.3-5,11.9-5.4,12.7c-0.7,0-7.8,0-8.8,0c0.6-1.3,5-11.9,5.4-12.7C212.4,47.8,219.5,47.8,220.6,47.8z"/>
		<path d="M227.1,64.6h23.4l3.7-3.1l4-9.4c0,0-16.2,0-17.3,0c0.4-1,1.5-3.6,1.8-4.3c0.7,0,16.1,0,17.1,0l2-4.1h-23.4l-3.6,3.1
			l-4,9.4c0,0,16.1,0,17.2,0c-0.4,1-1.6,3.6-1.8,4.3c-0.7,0-16,0-17.1,0L227.1,64.6z"/>
		<path d="M257.9,64.6h23.4l3.7-3.1l4-9.4c0,0-16.2,0-17.3,0c0.4-1,1.6-3.6,1.8-4.3c0.7,0,16.1,0,17.1,0l2-4.1h-23.4l-3.6,3.1
			l-4,9.4c0,0,16.1,0,17.2,0c-0.4,1-1.5,3.6-1.8,4.3c-0.7,0-16.1,0-17.1,0L257.9,64.6z"/>
		<path d="M360.7,64.6l-3.4-12.5c0,0,6,0,6.7,0c0.3-0.7,1.4-3.3,1.8-4.4c-1,0-8.1,0-8.7,0c-0.3,0.8-7.2,16.8-7.2,16.8h-8.5l8.9-20.9
			h23.2l1.1,3.3l-2.6,6.1l-3.7,3.1c0,0-1.3,0-1.4,0c0.5,1.6,2.7,8.4,2.7,8.4H360.7L360.7,64.6z"/>
		<path d="M288.3,64.6h8.5c0,0,3.1-7.4,3.5-8.3c0.7,0,14.3,0,14.3,0l1.7-4.1c0,0-13.1,0-14.2,0c0.4-1,1.5-3.6,1.8-4.3
			c0.7,0,17.2,0,17.2,0l1.8-4.2h-25.8L288.3,64.6z"/>
		<path d="M326.1,47.8c0,0,3.9,0,4.9,0c-0.6,1.3-5,11.9-5.4,12.7c-0.7,0-4.7,0-4.7,0l-1.7,4.1h18.1l1.7-4.1c0,0-3.8,0-4.8,0
			c0.6-1.3,5-11.9,5.4-12.7c0.7,0,4.5,0,4.5,0l1.7-4.1h-17.9L326.1,47.8z"/>
		<path d="M404.7,47.8l1.7-4.1h-25.8l-8.9,20.9h25.8l1.7-4.1c0,0-16.1,0-17.2,0c0.4-1,1.6-3.6,1.8-4.3c0.7,0,14.4,0,14.4,0l1.7-4.1
			c0,0-13.3,0-14.4,0c0.4-1,1.6-3.6,1.8-4.3C388.2,47.8,404.7,47.8,404.7,47.8z"/>
	</g>
</g>
</svg>
