<svg xmlns="http://www.w3.org/2000/svg" width="50" height="50" viewBox="0 0 50 50">
  <defs>
    <style>
      .cls-1 {
        fill-rule: evenodd;
      }
    </style>
  </defs>
  <path id="_cf-home" data-name="#cf-home" class="cls-1" d="M39.853,26.954a0.086,0.086,0,0,1-.026,0,0.029,0.029,0,0,1-.015-0.014l-0.257-.492H39.363v0.486a0.019,0.019,0,0,1-.022.022H39.193a0.018,0.018,0,0,1-.02-0.022V25.721a0.016,0.016,0,0,1,.006-0.014,0.016,0.016,0,0,1,.014-0.006h0.338a0.448,0.448,0,0,1,.295.09,0.339,0.339,0,0,1,.108.279,0.38,0.38,0,0,1-.053.206,0.332,0.332,0,0,1-.147.126l0.28,0.529c0.009,0.016,0,.023-0.02.023h-0.14Zm-0.489-1.078v0.4H39.5a0.3,0.3,0,0,0,.176-0.047,0.183,0.183,0,0,0,.066-0.158,0.173,0.173,0,0,0-.187-0.192H39.363Zm0.171-.612a1.064,1.064,0,1,0,1.07,1.064A1.067,1.067,0,0,0,39.534,25.265Zm0,1.95a0.885,0.885,0,1,1,.89-0.885A0.888,0.888,0,0,1,39.534,27.214Zm2.62-7.736,4.394-8.367-0.61.326c-0.031.015-3,1.592-3.96,2.045a9.6,9.6,0,0,1-3.2.344H28.819c-0.171-.011-2.787-0.127-3.981,3.055,0,0-3.7,10.619-3.909,11.2-0.27-.258-2.719-2.61-4.625-4.44l1.047-2.131,4.625-.006s1.588-4.433,1.6-4.471l0.083-.269H7.113a3.285,3.285,0,0,0-3.052,3.639v5.027L6.3,22.864a0.76,0.76,0,0,1,.545-0.31,1.81,1.81,0,0,1,1.1.449c0.011,0.012,15.947,15.88,15.947,15.88L27.862,27.3l8.964,0,1.991-5-9.273,0,0.976-2.819C30.812,19.476,42.154,19.479,42.154,19.479Z"/>
</svg>
