<svg xmlns="http://www.w3.org/2000/svg" width="157" height="12" viewBox="0 0 157 12">
  <defs>
    <style>
      .cls-1 {
        fill: #fff;
        fill-rule: evenodd;
      }
    </style>
  </defs>
  <path class="cls-1" d="M155.275,11.186a0.123,0.123,0,0,1-.05-0.005,0.037,0.037,0,0,1-.03-0.03l-0.482-.943h-0.357V11.14a0.035,0.035,0,0,1-.04.041H154.04c-0.03,0-.035-0.015-0.035-0.041V8.815a0.038,0.038,0,0,1,.01-0.031,0.028,0.028,0,0,1,.03-0.01h0.633a0.818,0.818,0,0,1,.552.173,0.656,0.656,0,0,1,.206.535,0.738,0.738,0,0,1-.1.393,0.647,0.647,0,0,1-.276.245l0.528,1.015c0.02,0.031,0,.041-0.036.041h-0.281v0.01Zm-0.919-2.07v0.76h0.261a0.512,0.512,0,0,0,.327-0.092,0.34,0.34,0,0,0,.125-0.3,0.367,0.367,0,0,0-.095-0.275,0.359,0.359,0,0,0-.256-0.092h-0.362Zm0.322-1.173a2.039,2.039,0,1,0,2.008,2.039A2.024,2.024,0,0,0,154.678,7.943Zm0,3.742a1.7,1.7,0,1,1,1.672-1.7A1.685,1.685,0,0,1,154.678,11.686ZM-0.008,12h0L4.251,1.77,6.3,0H18.107L18.74,1.9l-1.085,2.62H12.849s0.633-1.54.9-2.177H8.776C8.57,2.835,6.034,8.882,5.717,9.646h4.972c0.191-.454,1.055-2.376,1.055-2.376h4.811l-1.291,2.936-2.089,1.779H-0.008V12Zm28.25,0L26.349,4.839s3.385,0.005,3.767,0c0.166-.393.793-1.9,1.04-2.493H26.223C26.027,2.81,22.175,12,22.175,12h-4.8L22.4,0H35.509l0.643,1.9L34.691,5.384l-2.1,1.784H31.8c0.286,0.892,1.537,4.823,1.537,4.823h-5.1V12Zm12.9-12L39.085,1.77l-3.5,8.335L36.2,12H48.01l2.084-1.774,3.5-8.335L52.957,0H41.144Zm7.443,2.345c-0.321.76-2.853,6.806-3.059,7.306H40.552c0.321-.76,2.858-6.811,3.064-7.306h4.972ZM52.254,12H65.462l2.084-1.774,2.26-5.4H60.028c0.246-.586.869-2.075,1.04-2.478h9.658L71.835,0H58.6L56.543,1.775l-2.265,5.4h9.743c-0.251.586-.874,2.075-1.04,2.478l-9.633-.01Zm17.407,0H82.869l2.084-1.774,2.265-5.4H77.435c0.246-.586.869-2.075,1.04-2.478h9.658L89.238,0H76L73.945,1.775l-2.265,5.4h9.743c-0.246.586-.869,2.075-1.04,2.478l-9.638.015Zm58.047,0-1.893-7.153h3.766c0.166-.393.794-1.9,1.04-2.493h-4.937c-0.2.464-4.048,9.646-4.048,9.646h-4.8l5.027-12H134.97l0.638,1.9-1.461,3.487-2.1,1.784h-0.783c0.281,0.892,1.532,4.823,1.532,4.823h-5.088V12ZM86.862,12h4.8s1.778-4.242,1.984-4.741h8.041l0.979-2.35H94.626c0.246-.586.869-2.08,1.04-2.473H105.4L106.444,0H91.894Zm21.309-9.651h2.758c-0.322.76-2.853,6.811-3.064,7.306H105.2L104.219,12h10.22l0.98-2.345h-2.7c0.321-.76,2.852-6.811,3.058-7.306H118.3L119.281,0H109.156Zm44.407,0L153.563,0h-14.55l-5.032,12H148.53l0.985-2.345h-9.744c0.252-.586.874-2.08,1.04-2.478h8.111l0.979-2.35H141.79c0.247-.586.874-2.075,1.035-2.478h9.753Z"/>
</svg>
