<svg xmlns="http://www.w3.org/2000/svg" width="80" height="80" viewBox="0 0 80 80">
  <path id="icon-youtube" class="icon-youtube" d="M69.793,51.807s-0.594,4.076-2.417,5.871a8.828,8.828,0,0,1-6.092,2.505C52.776,60.781,40,60.8,40,60.8s-15.808-.141-20.672-0.594c-1.353-.247-4.391-0.172-6.7-2.528-1.823-1.795-2.416-5.87-2.416-5.87A87.05,87.05,0,0,1,9.6,42.234V37.747a87.05,87.05,0,0,1,.608-9.573S10.8,24.1,12.624,22.3a8.832,8.832,0,0,1,6.092-2.5c8.508-.6,21.271-0.6,21.271-0.6h0.026s12.763,0,21.271.6a8.83,8.83,0,0,1,6.092,2.5c1.823,1.8,2.417,5.871,2.417,5.871a87.172,87.172,0,0,1,.607,9.573v4.487A87.172,87.172,0,0,1,69.793,51.807ZM33.747,31.075l0,16.6,16.383-8.288Z"/>
</svg>
