<?xml version="1.0" encoding="utf-8"?>
<!-- Generator: Adobe Illustrator 23.0.2, SVG Export Plug-In . SVG Version: 6.00 Build 0)  -->
<svg version="1.1" id="Layer_1" xmlns="http://www.w3.org/2000/svg" xmlns:xlink="http://www.w3.org/1999/xlink" x="0px" y="0px"
	 viewBox="0 0 320 120" style="enable-background:new 0 0 320 120;" xml:space="preserve">
<style type="text/css">
	.st0{fill:#231F20;}
	.st1{fill:#F16923;}
	.st2{fill:#FFFFFF;}
</style>
<path class="st0" d="M19,39.2v41.5c0,0,1.4,11.3,14.1,12.7h39.4c0,0,11.6-1.2,13.1-13V39.5c0,0-1.4-12.4-14.2-12.8H33.1
	C33.1,26.6,21.5,26.4,19,39.2z"/>
<path d="M22.1,81.8l-2.9-12.4c0,0-3.3,0-4.3-2.7L9.8,56.4c0,0-1.8-3.6,2.2-5.7l26.9-13.1c0,0,4.3-1.9,5.8,2.3c0,0,1.8,3.2,3.3,6.7
	c0.9,3.5-0.4,6.7-0.4,6.7l6.7-3.8c0,0-8.1-3.4-2-12.4c7.2-8.6,16.9-6.8,18.3-6.1c1.4,0.7,7.5,4.4,2.4,11.5c0,0,6.6-1.2,8.9,5
	c0,0,2.9,6.6-4.3,11.5c0,0-7.6,6.6-15.1,4.8c0,0-6.7-0.7-6.6-8.7L50.8,58c0,0,3.1,0.1,4.3,4.3l4.5,9.3c0,0,1.9,4.2-2.8,5.6
	L32.2,89.1l-3.4,2L22.1,81.8z"/>
<path d="M19,39.2v41.5c0,0,1.4,11.3,14.1,12.7h39.4c0,0,11.6-1.2,13.1-13V39.5c0,0-1.4-12.4-14.2-12.8H33.1
	C33.1,26.6,21.5,26.4,19,39.2z"/>
<path class="st1" d="M72.2,89.3H33.3c-3.8-0.4-6.6-2-8.4-4.7c-1.2-1.8-1.7-3.6-1.8-4.2V39.6c0.8-3.7,2.6-6.2,5.3-7.7
	c2.2-1.2,4.3-1.2,4.5-1.2H33l0,0h38.3c3.8,0.1,6.5,1.6,8.4,4.4c1.3,2,1.7,4,1.8,4.6v40.4c-0.5,3.4-2.1,5.8-4.8,7.5
	C74.7,88.8,72.8,89.2,72.2,89.3L72.2,89.3z"/>
<path d="M22.1,81.8l-2.9-12.4c0,0-3.3,0-4.3-2.7L9.8,56.4c0,0-1.8-3.6,2.2-5.7l26.9-13.1c0,0,4.3-1.9,5.8,2.3c0,0,1.8,3.2,3.3,6.7
	c0.9,3.5-0.4,6.7-0.4,6.7l6.7-3.8c0,0-8.1-3.4-2-12.4c7.2-8.6,16.9-6.8,18.3-6.1c1.4,0.7,7.5,4.4,2.4,11.5c0,0,6.6-1.2,8.9,5
	c0,0,2.9,6.6-4.3,11.5c0,0-7.6,6.6-15.1,4.8c0,0-6.7-0.7-6.6-8.7L50.8,58c0,0,3.1,0.1,4.3,4.3l4.5,9.3c0,0,1.9,4.2-2.8,5.6
	L32.2,89.1l-3.4,2L22.1,81.8z"/>
<ellipse class="st1" cx="62.7" cy="41" rx="3.6" ry="3.6"/>
<path class="st1" d="M73,52.9c0,2.1-2.4,4-4.5,4s-4.1-1.9-4.1-4.5c0-2.1,2.5-4.1,4.6-4C71.4,48.5,73,50.8,73,52.9z"/>
<polygon class="st2" points="23.5,63.4 18.6,65.8 12.9,54.1 40.9,40.6 44.9,48.7 39.6,71.6 47.6,67.8 45.7,64 50.8,61.5 56.6,73.3 
	28.4,87 24.1,78.2 29.3,55.7 21.7,59.4 "/>
<path class="st2" d="M103.4,76.8v-4.3L121.7,47h-13.2v6h-4.2V42.8h23.9v3.8l-18.5,26h14.9V66h4.2v10.8H103.4z"/>
<path class="st2" d="M138.1,59c-3.3-1.9-5-4.6-5-7.9c0-2.9,1-5.1,3.1-6.6s4.6-2.3,7.5-2.3c3.4,0,6.1,0.8,8.1,2.4c2,1.6,3,3.8,3,6.5
	c0,3.3-1.7,5.9-5,7.9c4,1.6,6,4.4,6,8.4c0,3-1,5.4-3.1,7.2c-2.1,1.8-4.9,2.7-8.5,2.7c-4,0-7-0.9-9.1-2.7c-2.1-1.8-3.1-4.2-3.1-7.2
	C132.1,63.4,134.1,60.6,138.1,59z M137,67.3c0,1.8,0.6,3.3,1.9,4.4c1.2,1.2,2.9,1.7,5.1,1.7c2,0,3.7-0.6,5-1.7
	c1.3-1.1,1.9-2.6,1.9-4.5c0-1.8-0.6-3.3-1.8-4.4c-1.2-1.1-3-1.7-5.3-1.7c-2,0-3.6,0.5-4.9,1.6C137.6,63.8,137,65.3,137,67.3z
	 M137.7,51.6c0,1.8,0.6,3.2,1.7,4.1c1.1,0.9,2.7,1.4,4.7,1.4c1.7,0,3.1-0.5,4.3-1.4s1.8-2.3,1.8-4.1c0-3.6-2.1-5.3-6.4-5.3
	c-1.8,0-3.3,0.5-4.4,1.4C138.3,48.6,137.7,49.9,137.7,51.6z"/>
<path class="st2" d="M186.9,59v17.9h-3.6c-0.3-1.3-0.6-2.5-1.1-3.8c-2.4,2.9-5.4,4.4-9.1,4.4c-4.4,0-7.8-1.6-10.2-4.7
	c-2.4-3.1-3.6-7.1-3.6-12.1c0-5.3,1.3-9.6,3.9-12.8c2.6-3.2,6.1-4.8,10.5-4.8c3.7,0,6.7,1,9,3.1s3.7,4.9,4.2,8.3l-7.4,1
	c-0.6-4-2.5-6.1-5.8-6.1c-2.1,0-3.7,1-4.8,2.9s-1.6,4.7-1.6,8.2c0,3.4,0.6,6,1.8,7.9c1.2,1.8,2.8,2.7,5,2.7c1.4,0,2.7-0.5,3.8-1.4
	c1.1-0.9,1.7-2.4,1.7-4.4h-6.3V59H186.9z"/>
<path class="st2" d="M214.3,76.8h-7.1c-0.2-1-0.3-2.3-0.3-3.9c-1.2,1.8-2.5,2.9-3.7,3.5s-2.6,0.9-4.2,0.9c-2.3,0-4.2-0.6-5.6-1.9
	c-1.4-1.3-2.1-2.9-2.1-5.1c0-1.6,0.4-3,1.2-4.3c0.8-1.3,2.2-2.3,4-3.1c1.8-0.7,5.2-1.3,10.1-1.7V60c0-2.4-1.2-3.6-3.6-3.6
	c-2.6,0-4,1.2-4.3,3.6l-6.7-0.6c0.4-2.8,1.8-4.8,4-6s4.7-1.8,7.5-1.8c1.7,0,3.3,0.2,4.7,0.6c1.5,0.4,2.6,1,3.5,1.8
	c0.8,0.8,1.4,1.6,1.7,2.5s0.4,2.4,0.4,4.6v11.2C213.9,74.4,214,75.9,214.3,76.8z M206.6,65c-5.1,0.5-7.6,2-7.6,4.6
	c0,0.9,0.3,1.6,0.8,2.2c0.5,0.6,1.3,0.9,2.3,0.9c1.3,0,2.4-0.5,3.2-1.6c0.9-1.1,1.3-2.4,1.3-4V65z"/>
<path class="st2" d="M255.2,76.8h-7.3V63.1c0-1.9-0.1-3.2-0.2-3.8c-0.1-0.6-0.4-1.1-0.9-1.4c-0.5-0.4-1.1-0.6-2-0.6
	c-0.8,0-1.6,0.3-2.4,0.9c-0.8,0.6-1.2,2.2-1.2,4.9v13.7h-7.3V63.1c0-2-0.1-3.3-0.3-3.8c-0.2-0.6-0.5-1-1-1.4s-1.1-0.5-1.9-0.5
	c-1.3,0-2.2,0.4-2.8,1.2s-0.9,2.3-0.9,4.6v13.7h-7.1V52.1h6.9v3.8c1.2-2.9,3.5-4.3,7-4.3c3.2,0,5.4,1.4,6.8,4.3
	c1.4-2.9,3.8-4.3,7.2-4.3c1.6,0,3,0.3,4.2,1s2,1.5,2.5,2.6c0.5,1.1,0.8,2.9,0.8,5.6v16H255.2z"/>
<path class="st2" d="M283.4,65.7h-15.9c0,0.4,0,0.8,0,1.2c0,1.8,0.5,3.1,1.4,4s2.1,1.3,3.4,1.3c2.4,0,3.9-1.3,4.4-3.9l6.6,0.5
	c-1.8,5.7-5.6,8.6-11.2,8.6c-2.5,0-4.6-0.5-6.3-1.5c-1.7-1-3.1-2.4-4.3-4.3c-1.1-1.9-1.7-4.2-1.7-6.8c0-3.9,1.1-7.1,3.4-9.5
	c2.2-2.4,5.1-3.6,8.7-3.6c3.2,0,5.9,1.1,8.2,3.4C282.3,57.2,283.4,60.8,283.4,65.7z M267.5,61.5h8.8c-0.2-3.4-1.6-5.1-4.2-5.1
	C269.3,56.4,267.8,58.1,267.5,61.5z"/>
<path class="st2" d="M306.5,58.1l-5.3,1.4c-0.6-2.2-2.2-3.4-4.8-3.4c-2.4,0-3.7,0.7-3.7,2.2c0,0.6,0.2,1.1,0.7,1.4
	c0.4,0.4,1.6,0.6,3.5,0.9c2.8,0.4,4.9,0.8,6.3,1.3s2.4,1.3,3.2,2.5c0.8,1.2,1.2,2.6,1.2,4.3c0,2.5-1,4.6-2.9,6.2s-4.6,2.4-8.1,2.4
	c-6.3,0-10.1-2.4-11.3-7.3l6.1-0.9c0.5,2.2,2.3,3.3,5.5,3.3c1.2,0,2.2-0.2,3.1-0.7c0.8-0.4,1.2-1,1.2-1.8c0-1.1-0.9-1.8-2.8-2
	c-5-0.6-8.3-1.6-9.9-2.9c-1.6-1.3-2.4-3.1-2.4-5.4c0-2.3,0.9-4.3,2.7-5.8c1.8-1.5,4.4-2.3,7.7-2.3c2.6,0,4.7,0.5,6.3,1.5
	C304.5,54.2,305.7,55.8,306.5,58.1z"/>
</svg>
